<svg xmlns='http://www.w3.org/2000/svg' viewBox='0 0 10 10' fill='#fff'>
  <rect fill='#000' x='0' y='0' width='10' height='10' rx='2' ry='2'/>
  <path d="M8.12 7.25 7.75 6 7.25 6 6.88 7.25 5.62 7.62 5.62 8.12 6.88 8.5 7.25 9.75 7.75 9.75 8.12 8.5 9.38 8.12 9.38 7.62 8.12 7.25z"/>
  <path d="M7.25 1.5 6.88 .25 6.38 .25 6 1.5 4.75 1.88 4.75 2.38 6 2.75 6.38 4 6.88 4 7.25 2.75 8.5 2.38 8.5 1.88 7.25 1.5z"/>
  <path d="M3.25 4.88 2.88 3.12 2.38 3.12 2 4.88 .25 5.25 .25 5.75 2 6.12 2.38 7.88 2.88 7.88 3.25 6.12 5 5.75 5 5.25 3.25 4.88z"/>
</svg>